<svg width="351" height="63" viewBox="0 0 351 63" fill="none" xmlns="http://www.w3.org/2000/svg">
<g clip-path="url(#clip0_6_270)">
<path fill-rule="evenodd" clip-rule="evenodd" d="M0 31.6759C0 47.3366 11.3741 60.3592 26.25 63V40.2491H18.375V31.5H26.25V24.4991C26.25 16.6241 31.3241 12.2509 38.5009 12.2509C40.7741 12.2509 43.2259 12.6 45.4991 12.9491V21H41.475C37.6241 21 36.75 22.9241 36.75 25.3759V31.5H45.15L43.7509 40.2491H36.75V63C51.6259 60.3592 63 47.3393 63 31.6759C63 14.2538 48.825 0 31.5 0C14.175 0 0 14.2538 0 31.6759Z" fill="#241400"/>
</g>
<path d="M134.063 12.9596C131.871 13.9309 129.516 14.5871 127.041 14.8838C129.595 13.3555 131.506 10.9501 132.417 8.11652C130.017 9.54187 127.391 10.5452 124.652 11.0828C122.81 9.11629 120.371 7.81288 117.712 7.37489C115.054 6.9369 112.325 7.38885 109.95 8.66056C107.575 9.93227 105.686 11.9526 104.577 14.4079C103.467 16.8631 103.199 19.616 103.815 22.239C98.9525 21.9949 94.1959 20.7311 89.8536 18.5296C85.5113 16.3282 81.6804 13.2383 78.6096 9.46052C77.5596 11.2718 76.9558 13.3718 76.9558 15.6083C76.9547 17.6216 77.4505 19.6042 78.3993 21.3799C79.3481 23.1557 80.7205 24.6699 82.3948 25.788C80.4531 25.7262 78.5541 25.2016 76.8561 24.2576V24.4151C76.8559 27.239 77.8327 29.9759 79.6207 32.1615C81.4087 34.3471 83.8978 35.8468 86.6657 36.4061C84.8644 36.8936 82.9759 36.9655 81.1427 36.6161C81.9237 39.0459 83.4448 41.1706 85.4933 42.6928C87.5418 44.2151 90.015 45.0586 92.5667 45.1054C88.235 48.5059 82.8854 50.3504 77.3785 50.3423C76.403 50.3425 75.4283 50.2856 74.4595 50.1716C80.0493 53.7657 86.5564 55.6732 93.202 55.6658C115.698 55.6658 127.996 37.0335 127.996 20.874C127.996 20.349 127.983 19.8188 127.96 19.2938C130.352 17.5638 132.417 15.4216 134.057 12.9675L134.063 12.9596Z" fill="#241400"/>
<g clip-path="url(#clip1_6_270)">
<path d="M185.17 0H165.83C148.183 0 143.999 4.18359 143.999 21.8315V41.1705C143.999 58.8184 148.183 63.002 165.83 63.002H185.17C202.817 63.002 207.001 58.8184 207.001 41.1705V21.8315C207.001 4.18359 202.776 0 185.17 0ZM194.86 44.9426H190.286C188.554 44.9426 188.02 43.5684 184.904 40.4106C182.197 37.7862 180.998 37.4378 180.33 37.4378C179.387 37.4378 179.12 37.7035 179.12 38.997V43.1294C179.12 44.2378 178.771 44.9033 175.838 44.9033C170.987 44.9033 165.604 41.9698 161.83 36.5046C156.138 28.4957 154.581 22.4969 154.581 21.2566C154.581 20.5892 154.847 19.9651 156.128 19.9651H160.712C161.871 19.9651 162.312 20.4986 162.763 21.7389C165.029 28.2811 168.803 34.0121 170.361 34.0121C170.935 34.0121 171.201 33.7463 171.201 32.2796V25.5229C171.026 22.4063 169.386 22.1386 169.386 21.0322C169.386 20.4986 169.827 19.9651 170.534 19.9651H177.741C178.716 19.9651 179.074 20.4986 179.074 21.6464V30.7617C179.074 31.7461 179.515 32.0946 179.781 32.0946C180.356 32.0946 180.848 31.7461 181.913 30.679C185.205 26.9876 187.564 21.296 187.564 21.296C187.871 20.6286 188.404 20.0045 189.564 20.0045H194.147C195.521 20.0045 195.828 20.7113 195.521 21.6956C194.946 24.3613 189.337 32.2777 189.337 32.2777C188.855 33.077 188.67 33.4254 189.337 34.3173C189.83 34.9847 191.43 36.3687 192.495 37.609C194.454 39.8337 195.96 41.7001 196.362 42.9916C196.813 44.2733 196.147 44.9407 194.854 44.9407L194.86 44.9426Z" fill="#241400"/>
</g>
<path fill-rule="evenodd" clip-rule="evenodd" d="M235.596 2.79825C238.675 2.6565 239.656 2.625 247.5 2.625C255.343 2.625 256.325 2.65912 259.402 2.79825C262.478 2.93737 264.578 3.42825 266.416 4.13962C268.34 4.86675 270.085 6.00337 271.529 7.47337C272.999 8.9145 274.133 10.6575 274.858 12.5842C275.572 14.4217 276.06 16.5217 276.202 19.593C276.343 22.6774 276.375 23.6591 276.375 31.5C276.375 39.3435 276.341 40.3252 276.202 43.4044C276.063 46.4756 275.572 48.5756 274.858 50.4131C274.133 52.3401 272.997 54.086 271.529 55.5292C270.085 56.9992 268.34 58.1332 266.416 58.8577C264.578 59.5717 262.478 60.06 259.407 60.2017C256.325 60.3435 255.343 60.375 247.5 60.375C239.656 60.375 238.675 60.3409 235.596 60.2017C232.524 60.0626 230.424 59.5717 228.587 58.8577C226.66 58.1331 224.914 56.9973 223.471 55.5292C222.002 54.0873 220.865 52.3422 220.14 50.4157C219.428 48.5782 218.94 46.4782 218.798 43.407C218.656 40.3226 218.625 39.3409 218.625 31.5C218.625 23.6565 218.659 22.6747 218.798 19.5982C218.937 16.5217 219.428 14.4217 220.14 12.5842C220.866 10.6577 222.004 8.9127 223.473 7.47075C224.915 6.00207 226.659 4.86529 228.584 4.13962C230.422 3.42825 232.522 2.94 235.593 2.79825H235.596ZM259.168 7.99575C256.123 7.85662 255.21 7.82775 247.5 7.82775C239.79 7.82775 238.877 7.85662 235.832 7.99575C233.015 8.12437 231.488 8.59425 230.469 8.99062C229.122 9.51562 228.159 10.1378 227.148 11.1484C226.19 12.0804 225.453 13.215 224.991 14.469C224.594 15.4875 224.124 17.0152 223.996 19.8319C223.857 22.8769 223.828 23.7904 223.828 31.5C223.828 39.2096 223.857 40.1231 223.996 43.1681C224.124 45.9847 224.594 47.5125 224.991 48.531C225.453 49.7831 226.19 50.9197 227.148 51.8516C228.08 52.8097 229.217 53.5474 230.469 54.0094C231.488 54.4057 233.015 54.8756 235.832 55.0042C238.877 55.1434 239.788 55.1722 247.5 55.1722C255.212 55.1722 256.123 55.1434 259.168 55.0042C261.985 54.8756 263.513 54.4057 264.531 54.0094C265.878 53.4844 266.841 52.8622 267.852 51.8516C268.81 50.9197 269.547 49.7831 270.009 48.531C270.406 47.5125 270.876 45.9847 271.004 43.1681C271.143 40.1231 271.172 39.2096 271.172 31.5C271.172 23.7904 271.143 22.8769 271.004 19.8319C270.876 17.0152 270.406 15.4875 270.009 14.469C269.484 13.1224 268.862 12.159 267.852 11.1484C266.92 10.1904 265.785 9.45318 264.531 8.99062C263.513 8.59425 261.985 8.12437 259.168 7.99575ZM243.812 40.4014C245.872 41.2588 248.165 41.3745 250.301 40.7288C252.436 40.083 254.281 38.7159 255.521 36.8609C256.761 35.0059 257.318 32.778 257.097 30.5579C256.877 28.3378 255.892 26.2631 254.312 24.6881C253.304 23.6814 252.086 22.9105 250.745 22.431C249.404 21.9515 247.974 21.7753 246.556 21.9151C245.139 22.0549 243.77 22.5072 242.549 23.2395C241.327 23.9717 240.283 24.9657 239.492 26.1499C238.701 27.334 238.182 28.6789 237.973 30.0876C237.763 31.4964 237.869 32.934 238.282 34.297C238.696 35.6599 239.406 36.9143 240.362 37.9699C241.318 39.0254 242.496 39.8559 243.812 40.4014ZM237.005 21.0052C238.383 19.6271 240.02 18.5338 241.82 17.7879C243.621 17.0421 245.551 16.6582 247.5 16.6582C249.449 16.6582 251.379 17.0421 253.18 17.7879C254.98 18.5338 256.617 19.6271 257.995 21.0052C259.373 22.3834 260.466 24.0196 261.212 25.8203C261.958 27.621 262.342 29.5509 262.342 31.5C262.342 33.4491 261.958 35.379 261.212 37.1797C260.466 38.9804 259.373 40.6166 257.995 41.9947C255.211 44.7781 251.436 46.3418 247.5 46.3418C243.564 46.3418 239.789 44.7781 237.005 41.9947C234.222 39.2114 232.658 35.4363 232.658 31.5C232.658 27.5637 234.222 23.7886 237.005 21.0052ZM265.634 18.8685C265.975 18.5463 266.248 18.1589 266.438 17.7292C266.627 17.2994 266.728 16.8361 266.734 16.3667C266.741 15.8972 266.654 15.4312 266.477 14.9961C266.301 14.5611 266.039 14.1658 265.707 13.8339C265.375 13.5019 264.98 13.2399 264.545 13.0634C264.11 12.8869 263.644 12.7994 263.174 12.8063C262.705 12.8131 262.241 12.9141 261.812 13.1032C261.382 13.2923 260.994 13.5657 260.672 13.9072C260.046 14.5715 259.703 15.4537 259.716 16.3667C259.729 17.2797 260.098 18.1516 260.744 18.7972C261.389 19.4429 262.261 19.8115 263.174 19.8248C264.087 19.8381 264.969 19.4951 265.634 18.8685Z" fill="#241400"/>
<g clip-path="url(#clip2_6_270)">
<path d="M349.687 17.0809C349.331 15.8084 348.636 14.6563 347.677 13.7471C346.69 12.81 345.482 12.1397 344.164 11.7994C339.235 10.5 319.484 10.5 319.484 10.5C311.25 10.4063 303.019 10.8184 294.835 11.7338C293.518 12.0992 292.312 12.7845 291.323 13.7288C290.352 14.6633 289.648 15.8156 289.281 17.0783C288.398 21.8341 287.969 26.663 288 31.5C287.968 36.3326 288.396 41.16 289.281 45.9218C289.641 47.1791 290.341 48.3263 291.315 49.2529C292.289 50.1795 293.502 50.8489 294.835 51.2033C299.831 52.5 319.484 52.5 319.484 52.5C327.728 52.5938 335.971 52.1818 344.164 51.2663C345.482 50.926 346.69 50.2556 347.677 49.3185C348.648 48.3919 349.338 47.2395 349.685 45.9848C350.591 41.2308 351.031 36.3998 351 31.5604C351.068 26.7005 350.628 21.8467 349.687 17.0783V17.0809ZM313.205 40.488V22.5146L329.638 31.5026L313.205 40.488Z" fill="#241400"/>
</g>
<defs>
<clipPath id="clip0_6_270">
<rect width="63" height="63" fill="white"/>
</clipPath>
<clipPath id="clip1_6_270">
<rect width="63" height="63" fill="white" transform="translate(144)"/>
</clipPath>
<clipPath id="clip2_6_270">
<rect width="63" height="63" fill="white" transform="translate(288)"/>
</clipPath>
</defs>
</svg>
